# xmcd
#
# Track frame offsets:
#	150
#	14975
#	33777
#	46740
#	67077
#	81307
#	94552
#	112720
#	126522
#	138675
#	151692
#	169102
#	181487
#	195207
#
# Disc length: 2810 seconds
#
# Revision: 2
# Processed by: cddbd v1.5.2PL0 Copyright (c) Steve Scherf et al.
# Submitted via: audiograbber 1.83.01
#
DISCID=b40af80e
DTITLE=John Williamson - Mallee Boy
DYEAR=1986
DGENRE=Country
TTITLE0=Mallee Boy
TTITLE1=Galleries Of Pink Galahs
TTITLE2=Back At The Isa
TTITLE3=Raining On The Rock
TTITLE4=Three Rivers Hotel
TTITLE5=Cracker Night
TTITLE6=True Blue (With Friends)
TTITLE7=Humpin' My Bluey
TTITLE8=The Budgie Song
TTITLE9=I'm In The Mood
TTITLE10=Cootamundra Wattle
TTITLE11=Paint Me A Wheelbarrow
TTITLE12=Diamantina Drover
TTITLE13=Show Me A Better Way
EXTD=YEAR: 1986 ID3G: 2
EXTT0=
EXTT1=
EXTT2=
EXTT3=
EXTT4=
EXTT5=
EXTT6=
EXTT7=
EXTT8=
EXTT9=
EXTT10=
EXTT11=
EXTT12=
EXTT13=
PLAYORDER=
